<svg version="1.1" id="Layer_1" xmlns="http://www.w3.org/2000/svg" xmlns:xlink="http://www.w3.org/1999/xlink" x="0px" y="0px"
	 width="16px" height="16px" viewBox="0 0 182.831 174.366" enable-background="new 0 0 182.831 174.366"
	 xml:space="preserve">
<path fill-rule="evenodd" clip-rule="evenodd" d="M182.831,93.103c-7.797-10.428-14.735-19.499-21.404-28.765
	c-1.865-2.591-3.759-5.634-4.209-8.681c-1.237-8.385-2.619-16.918-2.279-25.325c0.484-11.979-4.535-20.635-13.242-27.889
	c-0.129-0.107-0.286-0.192-0.381-0.323c-2.427-3.348-4.305-2.37-6.559,0.435c-7.19,8.947-14.456,17.843-21.999,26.49
	c-1.496,1.715-4.328,3.085-6.595,3.164c-9.819,0.345-19.665,0.351-29.484,0.003c-2.249-0.08-5.035-1.521-6.543-3.241
	C62.47,20.231,55.084,11.24,47.73,2.231c-2.22-2.719-3.938-3.052-6.308-0.187c-2.646,3.201-5.9,5.924-8.364,9.244
	c-1.768,2.382-3.462,5.305-3.821,8.158c-1.391,11.06-2.461,22.174-3.176,33.298c-0.317,4.938-2.101,8.928-5.044,12.647
	c-2.986,3.774-5.995,7.533-8.882,11.382C8.324,81.857,4.62,87.021,0,93.338c9.66,0,17.807,0,26.882,0
	c-6.621,8.92-12.554,16.914-19.446,26.199c9.57,0,17.432,0,25.884,0c0,10.286,0,19.844,0,30.606
	c4.336-2.506,7.934-4.137,10.993-6.474c3.363-2.57,4.979-1.423,7.052,1.593c4.402,6.403,9.239,12.307,15.571,17.203
	c9.092,7.031,17.827,13.92,30.323,11.352c1.721-0.354,3.71-0.507,5.043-1.48c11.498-8.397,23.55-16.251,30.782-29.167
	c0.312-0.558,0.884-0.97,1.494-1.62c4.807,2.709,9.594,5.407,15.372,8.663c0-10.977,0-20.551,0-30.937c8.321,0,16.124,0,25.396,0
	c-6.922-9.212-12.909-17.181-19.666-26.174C165.163,93.103,173.209,93.103,182.831,93.103z M57.657,94.28
	c12.882-1.688,13.634-1.23,17.515,9.892C69.09,100.737,63.374,97.509,57.657,94.28z M101.16,137.151
	c-1.689,3.095-1.535,7.855-6.453,8.507c-8.363,1.107-10.528-0.452-13.411-9.765c4.522-5.367,10.606-3.312,16.132-2.919
	C98.846,133.075,101.49,136.546,101.16,137.151z M107.741,104.184c3.579-10.697,6.267-12.244,18.149-10.329
	C119.63,97.417,113.991,100.627,107.741,104.184z"/>
</svg>
